<mxfile host="app.diagrams.net" agent="Mozilla/5.0 (X11; Ubuntu; Linux x86_64; rv:142.0) Gecko/20100101 Firefox/142.0" version="28.2.0">
  <diagram name="Página-1" id="U8okIDWZvIVaz-O5tHLi">
    <mxGraphModel dx="1360" dy="765" grid="1" gridSize="10" guides="1" tooltips="1" connect="1" arrows="1" fold="1" page="1" pageScale="1" pageWidth="500" pageHeight="75" math="0" shadow="0">
      <root>
        <mxCell id="0" />
        <mxCell id="1" parent="0" />
        <mxCell id="q3hDggHBTjFHGu5esjN0-6" value="" style="group" parent="1" vertex="1" connectable="0">
          <mxGeometry x="50" y="170" width="160" height="110" as="geometry" />
        </mxCell>
        <mxCell id="q3hDggHBTjFHGu5esjN0-2" value="&lt;div&gt;&lt;b&gt;Datos del INE&lt;/b&gt;&lt;/div&gt;&lt;div&gt;&lt;b&gt;&lt;br&gt;&lt;/b&gt;&lt;/div&gt;&lt;div&gt;&lt;b&gt;&lt;br&gt;&lt;/b&gt;&lt;/div&gt;&lt;div&gt;&lt;b&gt;&lt;br&gt;&lt;/b&gt;&lt;/div&gt;&lt;div&gt;&lt;b&gt;&lt;br&gt;&lt;/b&gt;&lt;/div&gt;&lt;div&gt;&lt;b&gt;&lt;br&gt;&lt;/b&gt;&lt;/div&gt;" style="rounded=0;whiteSpace=wrap;html=1;" parent="q3hDggHBTjFHGu5esjN0-6" vertex="1">
          <mxGeometry width="160" height="110" as="geometry" />
        </mxCell>
        <mxCell id="q3hDggHBTjFHGu5esjN0-4" value="FRONTUR" style="rounded=0;whiteSpace=wrap;html=1;dashed=1;dashPattern=8 8;" parent="q3hDggHBTjFHGu5esjN0-6" vertex="1">
          <mxGeometry y="50" width="80" height="60" as="geometry" />
        </mxCell>
        <mxCell id="q3hDggHBTjFHGu5esjN0-5" value="EGATUR" style="rounded=0;whiteSpace=wrap;html=1;dashed=1;dashPattern=8 8;" parent="q3hDggHBTjFHGu5esjN0-6" vertex="1">
          <mxGeometry x="80" y="50" width="80" height="60" as="geometry" />
        </mxCell>
        <mxCell id="q3hDggHBTjFHGu5esjN0-7" value="" style="shape=flexArrow;endArrow=classic;html=1;rounded=0;" parent="1" edge="1">
          <mxGeometry width="50" height="50" relative="1" as="geometry">
            <mxPoint x="230" y="220" as="sourcePoint" />
            <mxPoint x="320" y="220" as="targetPoint" />
          </mxGeometry>
        </mxCell>
        <mxCell id="q3hDggHBTjFHGu5esjN0-8" value="EDA" style="edgeLabel;html=1;align=center;verticalAlign=middle;resizable=0;points=[];fontSize=20;" parent="q3hDggHBTjFHGu5esjN0-7" vertex="1" connectable="0">
          <mxGeometry x="0.22" y="-4" relative="1" as="geometry">
            <mxPoint x="-17" y="-4" as="offset" />
          </mxGeometry>
        </mxCell>
        <mxCell id="q3hDggHBTjFHGu5esjN0-9" value="" style="group" parent="1" vertex="1" connectable="0">
          <mxGeometry x="350" y="230" width="160" height="110" as="geometry" />
        </mxCell>
        <mxCell id="q3hDggHBTjFHGu5esjN0-10" value="&lt;div&gt;&lt;b&gt;Datos procesados&lt;/b&gt;&lt;/div&gt;&lt;div&gt;&lt;b&gt;&lt;br&gt;&lt;/b&gt;&lt;/div&gt;&lt;div&gt;&lt;b&gt;&lt;br&gt;&lt;/b&gt;&lt;/div&gt;&lt;div&gt;&lt;b&gt;&lt;br&gt;&lt;/b&gt;&lt;/div&gt;&lt;div&gt;&lt;b&gt;&lt;br&gt;&lt;/b&gt;&lt;/div&gt;&lt;div&gt;&lt;b&gt;&lt;br&gt;&lt;/b&gt;&lt;/div&gt;" style="rounded=0;whiteSpace=wrap;html=1;" parent="q3hDggHBTjFHGu5esjN0-9" vertex="1">
          <mxGeometry width="160" height="110" as="geometry" />
        </mxCell>
        <mxCell id="q3hDggHBTjFHGu5esjN0-11" value="Serie temporal número de turistas" style="rounded=0;whiteSpace=wrap;html=1;dashed=1;dashPattern=8 8;" parent="q3hDggHBTjFHGu5esjN0-9" vertex="1">
          <mxGeometry y="50" width="80" height="60" as="geometry" />
        </mxCell>
        <mxCell id="q3hDggHBTjFHGu5esjN0-12" value="Dataset procesado egatur (gasto turismo)" style="rounded=0;whiteSpace=wrap;html=1;dashed=1;dashPattern=8 8;" parent="q3hDggHBTjFHGu5esjN0-9" vertex="1">
          <mxGeometry x="80" y="50" width="80" height="60" as="geometry" />
        </mxCell>
        <mxCell id="q3hDggHBTjFHGu5esjN0-20" value="" style="group" parent="1" vertex="1" connectable="0">
          <mxGeometry x="300" y="450" width="270" height="110" as="geometry" />
        </mxCell>
        <mxCell id="q3hDggHBTjFHGu5esjN0-14" value="&lt;div&gt;&lt;b&gt;Modelos&lt;/b&gt;&lt;/div&gt;&lt;div&gt;&lt;b&gt;&lt;br&gt;&lt;/b&gt;&lt;/div&gt;&lt;div&gt;&lt;b&gt;&lt;br&gt;&lt;/b&gt;&lt;/div&gt;&lt;div&gt;&lt;b&gt;&lt;br&gt;&lt;/b&gt;&lt;/div&gt;&lt;div&gt;&lt;b&gt;&lt;br&gt;&lt;/b&gt;&lt;/div&gt;&lt;div&gt;&lt;b&gt;&lt;br&gt;&lt;/b&gt;&lt;/div&gt;" style="rounded=0;whiteSpace=wrap;html=1;container=0;" parent="q3hDggHBTjFHGu5esjN0-20" vertex="1">
          <mxGeometry width="270" height="110" as="geometry" />
        </mxCell>
        <mxCell id="q3hDggHBTjFHGu5esjN0-15" value="&lt;div&gt;arima&amp;nbsp;(predicción temporal del número de turistas)&lt;/div&gt;" style="rounded=0;whiteSpace=wrap;html=1;container=0;dashed=1;dashPattern=8 8;" parent="q3hDggHBTjFHGu5esjN0-20" vertex="1">
          <mxGeometry y="40" width="90" height="70" as="geometry" />
        </mxCell>
        <mxCell id="q3hDggHBTjFHGu5esjN0-16" value="clusterización de perfiles de turistas" style="rounded=0;whiteSpace=wrap;html=1;container=0;dashed=1;dashPattern=8 8;" parent="q3hDggHBTjFHGu5esjN0-20" vertex="1">
          <mxGeometry x="90" y="40" width="90" height="70" as="geometry" />
        </mxCell>
        <mxCell id="q3hDggHBTjFHGu5esjN0-18" value="regresión del gasto medio diario de turistas" style="rounded=0;whiteSpace=wrap;html=1;container=0;dashed=1;dashPattern=8 8;" parent="q3hDggHBTjFHGu5esjN0-20" vertex="1">
          <mxGeometry x="180" y="40" width="90" height="70" as="geometry" />
        </mxCell>
        <mxCell id="q3hDggHBTjFHGu5esjN0-21" value="" style="shape=flexArrow;endArrow=classic;html=1;rounded=0;" parent="1" edge="1">
          <mxGeometry width="50" height="50" relative="1" as="geometry">
            <mxPoint x="429.58" y="360" as="sourcePoint" />
            <mxPoint x="429.58" y="440" as="targetPoint" />
          </mxGeometry>
        </mxCell>
        <mxCell id="q3hDggHBTjFHGu5esjN0-22" value="Modelado" style="edgeLabel;html=1;align=center;verticalAlign=middle;resizable=0;points=[];fontSize=20;" parent="q3hDggHBTjFHGu5esjN0-21" vertex="1" connectable="0">
          <mxGeometry x="0.22" y="-4" relative="1" as="geometry">
            <mxPoint x="5" y="-20" as="offset" />
          </mxGeometry>
        </mxCell>
        <mxCell id="q3hDggHBTjFHGu5esjN0-30" value="Usuario" style="shape=umlActor;verticalLabelPosition=bottom;verticalAlign=top;html=1;outlineConnect=0;" parent="1" vertex="1">
          <mxGeometry x="1320" y="210" width="30" height="60" as="geometry" />
        </mxCell>
        <mxCell id="q3hDggHBTjFHGu5esjN0-32" value="" style="group" parent="1" vertex="1" connectable="0">
          <mxGeometry x="680" y="140" width="180" height="160" as="geometry" />
        </mxCell>
        <mxCell id="q3hDggHBTjFHGu5esjN0-25" value="&lt;div&gt;&lt;b&gt;Servidor MCP&lt;/b&gt;&lt;/div&gt;&lt;div&gt;&lt;b&gt;&lt;br&gt;&lt;/b&gt;&lt;/div&gt;&lt;div&gt;&lt;b&gt;&lt;br&gt;&lt;/b&gt;&lt;/div&gt;&lt;div&gt;&lt;b&gt;&lt;br&gt;&lt;/b&gt;&lt;/div&gt;&lt;div&gt;&lt;b&gt;&lt;br&gt;&lt;/b&gt;&lt;/div&gt;&lt;div&gt;&lt;b&gt;&lt;br&gt;&lt;/b&gt;&lt;/div&gt;&lt;div&gt;&lt;b&gt;&lt;br&gt;&lt;/b&gt;&lt;/div&gt;&lt;div&gt;&lt;b&gt;&lt;br&gt;&lt;/b&gt;&lt;/div&gt;&lt;div&gt;&lt;b&gt;&lt;br&gt;&lt;/b&gt;&lt;/div&gt;&lt;div&gt;&lt;b&gt;&lt;br&gt;&lt;/b&gt;&lt;/div&gt;" style="rounded=0;whiteSpace=wrap;html=1;container=0;" parent="q3hDggHBTjFHGu5esjN0-32" vertex="1">
          <mxGeometry width="180" height="160" as="geometry" />
        </mxCell>
        <mxCell id="q3hDggHBTjFHGu5esjN0-26" value="predictor" style="rounded=0;whiteSpace=wrap;html=1;container=0;dashed=1;dashPattern=8 8;" parent="q3hDggHBTjFHGu5esjN0-32" vertex="1">
          <mxGeometry y="40" width="90" height="60" as="geometry" />
        </mxCell>
        <mxCell id="q3hDggHBTjFHGu5esjN0-27" value="RAG" style="rounded=0;whiteSpace=wrap;html=1;container=0;dashed=1;dashPattern=8 8;" parent="q3hDggHBTjFHGu5esjN0-32" vertex="1">
          <mxGeometry y="100" width="90" height="60" as="geometry" />
        </mxCell>
        <mxCell id="q3hDggHBTjFHGu5esjN0-28" value="report" style="rounded=0;whiteSpace=wrap;html=1;container=0;dashed=1;dashPattern=8 8;" parent="q3hDggHBTjFHGu5esjN0-32" vertex="1">
          <mxGeometry x="90" y="40" width="90" height="120" as="geometry" />
        </mxCell>
        <mxCell id="q3hDggHBTjFHGu5esjN0-41" value="" style="shape=flexArrow;endArrow=classic;html=1;rounded=0;" parent="q3hDggHBTjFHGu5esjN0-32" edge="1">
          <mxGeometry width="50" height="50" relative="1" as="geometry">
            <mxPoint x="75" y="100" as="sourcePoint" />
            <mxPoint x="105" y="100" as="targetPoint" />
            <Array as="points">
              <mxPoint x="85" y="100" />
            </Array>
          </mxGeometry>
        </mxCell>
        <mxCell id="q3hDggHBTjFHGu5esjN0-33" value="" style="group" parent="1" vertex="1" connectable="0">
          <mxGeometry x="975" y="145" width="180" height="160" as="geometry" />
        </mxCell>
        <mxCell id="q3hDggHBTjFHGu5esjN0-34" value="&lt;div&gt;&lt;b&gt;Cliente&lt;/b&gt;&lt;/div&gt;&lt;div&gt;&lt;b&gt;&lt;br&gt;&lt;/b&gt;&lt;/div&gt;&lt;div&gt;&lt;b&gt;&lt;br&gt;&lt;/b&gt;&lt;/div&gt;&lt;div&gt;&lt;b&gt;&lt;br&gt;&lt;/b&gt;&lt;/div&gt;&lt;div&gt;&lt;b&gt;&lt;br&gt;&lt;/b&gt;&lt;/div&gt;&lt;div&gt;&lt;b&gt;&lt;br&gt;&lt;/b&gt;&lt;/div&gt;&lt;div&gt;&lt;b&gt;&lt;br&gt;&lt;/b&gt;&lt;/div&gt;&lt;div&gt;&lt;b&gt;&lt;br&gt;&lt;/b&gt;&lt;/div&gt;&lt;div&gt;&lt;b&gt;&lt;br&gt;&lt;/b&gt;&lt;/div&gt;&lt;div&gt;&lt;b&gt;&lt;br&gt;&lt;/b&gt;&lt;/div&gt;" style="rounded=0;whiteSpace=wrap;html=1;container=0;" parent="q3hDggHBTjFHGu5esjN0-33" vertex="1">
          <mxGeometry width="180" height="160" as="geometry" />
        </mxCell>
        <mxCell id="q3hDggHBTjFHGu5esjN0-35" value="&lt;div&gt;backend&lt;/div&gt;" style="rounded=0;whiteSpace=wrap;html=1;container=0;dashed=1;dashPattern=8 8;" parent="q3hDggHBTjFHGu5esjN0-33" vertex="1">
          <mxGeometry y="40" width="130" height="120" as="geometry" />
        </mxCell>
        <mxCell id="q3hDggHBTjFHGu5esjN0-37" value="front" style="rounded=0;whiteSpace=wrap;html=1;container=0;dashed=1;dashPattern=8 8;" parent="q3hDggHBTjFHGu5esjN0-33" vertex="1">
          <mxGeometry x="130" y="40" width="50" height="120" as="geometry" />
        </mxCell>
        <mxCell id="q3hDggHBTjFHGu5esjN0-42" value="" style="shape=flexArrow;endArrow=classic;html=1;rounded=0;" parent="q3hDggHBTjFHGu5esjN0-33" edge="1">
          <mxGeometry width="50" height="50" relative="1" as="geometry">
            <mxPoint x="120" y="79.58000000000001" as="sourcePoint" />
            <mxPoint x="150" y="79.58000000000001" as="targetPoint" />
            <Array as="points">
              <mxPoint x="130" y="79.58000000000001" />
            </Array>
          </mxGeometry>
        </mxCell>
        <mxCell id="q3hDggHBTjFHGu5esjN0-43" value="" style="shape=flexArrow;endArrow=classic;html=1;rounded=0;" parent="q3hDggHBTjFHGu5esjN0-33" edge="1">
          <mxGeometry width="50" height="50" relative="1" as="geometry">
            <mxPoint x="140" y="130" as="sourcePoint" />
            <mxPoint x="110" y="130" as="targetPoint" />
            <Array as="points">
              <mxPoint x="90" y="130" />
            </Array>
          </mxGeometry>
        </mxCell>
        <mxCell id="q3hDggHBTjFHGu5esjN0-56" value="&lt;font style=&quot;font-size: 24px;&quot;&gt;&lt;strong data-end=&quot;576&quot; data-start=&quot;556&quot;&gt;Datos y Modelado&lt;/strong&gt;&lt;/font&gt;" style="text;html=1;align=center;verticalAlign=middle;whiteSpace=wrap;rounded=0;" parent="1" vertex="1">
          <mxGeometry x="170" y="40" width="240" height="30" as="geometry" />
        </mxCell>
        <mxCell id="q3hDggHBTjFHGu5esjN0-57" value="" style="group" parent="1" vertex="1" connectable="0">
          <mxGeometry x="350" y="90" width="160" height="110" as="geometry" />
        </mxCell>
        <mxCell id="q3hDggHBTjFHGu5esjN0-48" value="&lt;div&gt;&lt;b&gt;Documentos&lt;/b&gt;&lt;/div&gt;&lt;div&gt;&lt;br&gt;&lt;/div&gt;&lt;div&gt;&lt;br&gt;&lt;/div&gt;&lt;div&gt;&lt;br&gt;&lt;/div&gt;&lt;div&gt;&lt;br&gt;&lt;/div&gt;" style="rounded=0;whiteSpace=wrap;html=1;container=0;" parent="q3hDggHBTjFHGu5esjN0-57" vertex="1">
          <mxGeometry width="160" height="110" as="geometry" />
        </mxCell>
        <mxCell id="q3hDggHBTjFHGu5esjN0-49" value="EGATUR" style="rounded=0;whiteSpace=wrap;html=1;dashed=1;dashPattern=8 8;container=0;" parent="q3hDggHBTjFHGu5esjN0-57" vertex="1">
          <mxGeometry y="80" width="80" height="30" as="geometry" />
        </mxCell>
        <mxCell id="q3hDggHBTjFHGu5esjN0-50" value="FAQs" style="rounded=0;whiteSpace=wrap;html=1;dashed=1;dashPattern=8 8;container=0;" parent="q3hDggHBTjFHGu5esjN0-57" vertex="1">
          <mxGeometry x="80" y="80" width="80" height="30" as="geometry" />
        </mxCell>
        <mxCell id="q3hDggHBTjFHGu5esjN0-51" value="Destinos" style="rounded=0;whiteSpace=wrap;html=1;dashed=1;dashPattern=8 8;container=0;" parent="q3hDggHBTjFHGu5esjN0-57" vertex="1">
          <mxGeometry x="80" y="50" width="80" height="30" as="geometry" />
        </mxCell>
        <mxCell id="q3hDggHBTjFHGu5esjN0-52" value="FRONTUR" style="rounded=0;whiteSpace=wrap;html=1;dashed=1;dashPattern=8 8;container=0;" parent="q3hDggHBTjFHGu5esjN0-57" vertex="1">
          <mxGeometry y="50" width="80" height="30" as="geometry" />
        </mxCell>
        <mxCell id="q3hDggHBTjFHGu5esjN0-58" value="" style="shape=flexArrow;endArrow=classic;html=1;rounded=0;" parent="1" edge="1">
          <mxGeometry width="50" height="50" relative="1" as="geometry">
            <mxPoint x="550" y="220" as="sourcePoint" />
            <mxPoint x="640" y="220" as="targetPoint" />
          </mxGeometry>
        </mxCell>
        <mxCell id="q3hDggHBTjFHGu5esjN0-59" value="Utiliza" style="edgeLabel;html=1;align=center;verticalAlign=middle;resizable=0;points=[];fontSize=20;" parent="q3hDggHBTjFHGu5esjN0-58" vertex="1" connectable="0">
          <mxGeometry x="0.22" y="-4" relative="1" as="geometry">
            <mxPoint x="-17" y="-4" as="offset" />
          </mxGeometry>
        </mxCell>
        <mxCell id="q3hDggHBTjFHGu5esjN0-61" value="" style="endArrow=none;dashed=1;html=1;rounded=0;" parent="1" edge="1">
          <mxGeometry width="50" height="50" relative="1" as="geometry">
            <mxPoint x="600" y="600" as="sourcePoint" />
            <mxPoint x="600" y="10" as="targetPoint" />
          </mxGeometry>
        </mxCell>
        <mxCell id="q3hDggHBTjFHGu5esjN0-63" value="" style="endArrow=none;dashed=1;html=1;rounded=0;" parent="1" edge="1">
          <mxGeometry width="50" height="50" relative="1" as="geometry">
            <mxPoint x="920" y="600" as="sourcePoint" />
            <mxPoint x="920" y="10" as="targetPoint" />
          </mxGeometry>
        </mxCell>
        <mxCell id="q3hDggHBTjFHGu5esjN0-64" value="&lt;div&gt;&lt;b&gt;Servicio&lt;/b&gt;&amp;nbsp;&lt;/div&gt;&lt;div&gt;&lt;b&gt;(MCP Server)&lt;/b&gt;&lt;/div&gt;" style="text;html=1;align=center;verticalAlign=middle;whiteSpace=wrap;rounded=0;fontSize=24;" parent="1" vertex="1">
          <mxGeometry x="672.5" y="40" width="195" height="30" as="geometry" />
        </mxCell>
        <mxCell id="q3hDggHBTjFHGu5esjN0-65" value="&lt;b&gt;Orquestación + Interfaz&lt;/b&gt;" style="text;html=1;align=center;verticalAlign=middle;whiteSpace=wrap;rounded=0;fontSize=24;" parent="1" vertex="1">
          <mxGeometry x="1010" y="40" width="280" height="30" as="geometry" />
        </mxCell>
        <mxCell id="q3hDggHBTjFHGu5esjN0-68" value="" style="shape=flexArrow;endArrow=classic;html=1;rounded=0;" parent="1" edge="1">
          <mxGeometry width="50" height="50" relative="1" as="geometry">
            <mxPoint x="880" y="225" as="sourcePoint" />
            <mxPoint x="960" y="224.58" as="targetPoint" />
          </mxGeometry>
        </mxCell>
        <mxCell id="q3hDggHBTjFHGu5esjN0-69" value="Utiliza" style="edgeLabel;html=1;align=center;verticalAlign=middle;resizable=0;points=[];fontSize=20;" parent="q3hDggHBTjFHGu5esjN0-68" vertex="1" connectable="0">
          <mxGeometry x="0.22" y="-4" relative="1" as="geometry">
            <mxPoint x="-17" y="-4" as="offset" />
          </mxGeometry>
        </mxCell>
        <mxCell id="q3hDggHBTjFHGu5esjN0-70" value="" style="shape=flexArrow;endArrow=classic;html=1;rounded=0;" parent="1" edge="1">
          <mxGeometry width="50" height="50" relative="1" as="geometry">
            <mxPoint x="1170" y="240" as="sourcePoint" />
            <mxPoint x="1310" y="240" as="targetPoint" />
          </mxGeometry>
        </mxCell>
        <mxCell id="q3hDggHBTjFHGu5esjN0-71" value="Interactua" style="edgeLabel;html=1;align=center;verticalAlign=middle;resizable=0;points=[];fontSize=20;" parent="q3hDggHBTjFHGu5esjN0-70" vertex="1" connectable="0">
          <mxGeometry x="0.22" y="-4" relative="1" as="geometry">
            <mxPoint x="-17" y="-4" as="offset" />
          </mxGeometry>
        </mxCell>
        <mxCell id="QdiZ5lK3XsuUyjRonjJS-2" value="&lt;font style=&quot;font-size: 24px;&quot;&gt;&lt;strong data-end=&quot;1058&quot; data-start=&quot;1027&quot;&gt;Despliegue (Local / Docker / Azure)&lt;/strong&gt;&lt;/font&gt;" style="rounded=0;whiteSpace=wrap;html=1;" vertex="1" parent="1">
          <mxGeometry y="600" width="1500" height="70" as="geometry" />
        </mxCell>
      </root>
    </mxGraphModel>
  </diagram>
</mxfile>
